<svg width="24" height="24" viewBox="0 0 24 24" fill="none" xmlns="http://www.w3.org/2000/svg">
<rect width="24" height="24" rx="12" fill="#222222"/>
<path d="M15 6H9C8.17157 6 7.5 6.67157 7.5 7.5V16.5C7.5 17.3284 8.17157 18 9 18H15C15.8284 18 16.5 17.3284 16.5 16.5V7.5C16.5 6.67157 15.8284 6 15 6ZM10.4131 9.50994L12 11.4142L13.5869 9.50994C13.7195 9.35084 13.956 9.32934 14.1151 9.46193C14.2742 9.59451 14.2957 9.83097 14.1631 9.99008L12.4881 12L14.1631 14.0099C14.2957 14.169 14.2742 14.4055 14.1151 14.5381C13.956 14.6707 13.7195 14.6492 13.5869 14.4901L12 12.5858L10.4131 14.4901C10.2805 14.6492 10.044 14.6707 9.88494 14.5381C9.72584 14.4055 9.70434 14.169 9.83693 14.0099L11.5119 12L9.83693 9.99008C9.70434 9.83097 9.72584 9.59451 9.88494 9.46193C10.044 9.32934 10.2805 9.35084 10.4131 9.50994Z" fill="white"/>
</svg>
