<svg width="36" height="36" viewBox="0 0 36 36" fill="none" xmlns="http://www.w3.org/2000/svg">
<path d="M27.9438 22.956V25.956C27.9449 26.2345 27.8878 26.5102 27.7763 26.7653C27.6647 27.0205 27.501 27.2496 27.2958 27.4379C27.0906 27.6261 26.8483 27.7695 26.5845 27.8587C26.3207 27.9479 26.0411 27.9811 25.7638 27.956C22.6866 27.6216 19.7307 26.5701 17.1337 24.886C14.7176 23.3507 12.6691 21.3022 11.1338 18.886C9.44373 16.2772 8.39199 13.307 8.06375 10.216C8.03876 9.93945 8.07163 9.66075 8.16025 9.39761C8.24888 9.13447 8.39132 8.89267 8.57852 8.68761C8.76571 8.48254 8.99356 8.31869 9.24754 8.20651C9.50153 8.09432 9.77609 8.03625 10.0538 8.03599H13.0538C13.5391 8.03121 14.0095 8.20306 14.3775 8.51952C14.7455 8.83597 14.9858 9.27543 15.0538 9.75599C15.1804 10.7161 15.4152 11.6587 15.7538 12.566C15.8883 12.9239 15.9174 13.3129 15.8377 13.6869C15.7579 14.0608 15.5726 14.4041 15.3038 14.676L14.0338 15.946C15.4573 18.4495 17.5302 20.5224 20.0338 21.946L21.3038 20.676C21.5756 20.4071 21.9189 20.2218 22.2929 20.1421C22.6668 20.0623 23.0558 20.0914 23.4137 20.226C24.321 20.5645 25.2637 20.7994 26.2238 20.926C26.7095 20.9945 27.1532 21.2392 27.4703 21.6135C27.7874 21.9878 27.9559 22.4656 27.9438 22.956Z" stroke="#333333" stroke-width="2" stroke-linecap="round" stroke-linejoin="round"/>
</svg>
