<svg width="59" height="50" viewBox="0 0 59 50" fill="none" xmlns="http://www.w3.org/2000/svg">
<g clip-path="url(#clip0_550_2292)">
<path d="M47.7834 13.5H11.2166C7.78328 13.5 5 16.2598 5 19.6642V30.3358C5 33.7402 7.78328 36.5 11.2166 36.5H47.7834C51.2167 36.5 54 33.7402 54 30.3358V19.6642C54 16.2598 51.2167 13.5 47.7834 13.5Z" fill="#BA2440"/>
<path d="M12.7092 15.25H46.2908C49.3209 15.25 51.75 17.5525 51.75 20.3602V29.6398C51.75 32.4475 49.3209 34.75 46.2908 34.75H12.7092C9.67906 34.75 7.25 32.4475 7.25 29.6398V20.3602C7.25 17.5525 9.67906 15.25 12.7092 15.25Z" stroke="white" stroke-width="0.5"/>
<path d="M9.96118 24.5521C9.96118 22.898 10.5586 21.7619 11.5774 21.0837C12.195 20.6859 13.3062 20.5743 14.0075 20.7346C14.6164 20.8633 15.2052 21.2239 15.8401 21.9708L14.83 23.0869C14.221 22.36 13.4649 22.1998 12.8213 22.4287C12.0363 22.6977 11.586 23.416 11.586 24.5521C11.586 25.6883 12.2325 26.5239 12.83 26.6842C13.5024 26.853 14.3625 26.6842 14.83 26.0059L15.8401 27.142C15.2312 27.9004 14.654 28.2495 14.0075 28.3783C13.3062 28.5186 12.1921 28.4184 11.5774 28.0292C10.5586 27.351 9.96118 26.2148 9.96118 24.5521Z" fill="white"/>
<path d="M19.5286 28.4298C17.4333 28.4298 16.2183 26.9445 16.2183 24.5549C16.2183 22.1654 17.4333 20.6772 19.5286 20.6772C21.6239 20.6772 22.8765 22.1625 22.8765 24.5549C22.8765 26.9474 21.6412 28.4298 19.5286 28.4298ZM19.5459 26.7356C20.5272 26.7356 21.191 25.8885 21.191 24.5549C21.191 23.29 20.507 22.3714 19.5459 22.3714C18.5849 22.3714 17.9009 23.2872 17.9009 24.5549C17.9009 25.8914 18.5647 26.7356 19.5459 26.7356Z" fill="white"/>
<path d="M26.4003 26.8158C27.0092 26.8158 27.5114 26.4381 27.5114 25.5996V20.8462H29.1767V25.7484C29.1767 27.4826 28.054 28.4585 26.4003 28.4585C24.7465 28.4585 23.6614 27.4826 23.6614 25.7484V20.8462H25.3266V25.5996C25.3266 26.4381 25.8029 26.8158 26.4032 26.8158H26.4003Z" fill="white"/>
<path d="M29.5605 20.8462H32.2071C34.1061 20.8462 35.1336 21.802 35.1336 23.4475C35.1336 24.804 34.1321 25.9888 32.3947 25.9888H31.2172V28.241H29.5634V20.8462H29.5605ZM31.2143 24.4034H32.4668C33.1768 24.4034 33.5145 23.894 33.5145 23.4075C33.5145 22.8695 33.1508 22.4402 32.487 22.4402H31.2143V24.4034Z" fill="white"/>
<path d="M38.9578 28.4298C36.8625 28.4298 35.6475 26.9445 35.6475 24.5549C35.6475 22.1654 36.8625 20.6772 38.9578 20.6772C41.0531 20.6772 42.3057 22.1625 42.3057 24.5549C42.3057 26.9474 41.0704 28.4298 38.9578 28.4298ZM38.9751 26.7356C39.9564 26.7356 40.6202 25.8885 40.6202 24.5549C40.6202 23.29 39.9362 22.3714 38.9751 22.3714C38.0141 22.3714 37.33 23.2872 37.33 24.5549C37.33 25.8914 37.9938 26.7356 38.9751 26.7356Z" fill="white"/>
<path d="M44.7356 23.6449V28.2381H43.0906V20.8433H44.7068L47.1484 25.2876V20.8433H48.7935V28.2381H47.261L44.7356 23.6449Z" fill="white"/>
</g>
<defs>
<clipPath id="clip0_550_2292">
<rect width="49" height="23" fill="white" transform="translate(5 13.5)"/>
</clipPath>
</defs>
</svg>
