<svg width="24" height="24" viewBox="0 0 24 24" fill="none" xmlns="http://www.w3.org/2000/svg">
<rect width="24" height="24" rx="12" fill="#017F69"/>
<path d="M15 6H9C8.17157 6 7.5 6.67157 7.5 7.5V16.5C7.5 17.3284 8.17157 18 9 18H15C15.8284 18 16.5 17.3284 16.5 16.5V7.5C16.5 6.67157 15.8284 6 15 6ZM9.75 9H14.25C14.4571 9 14.625 9.16789 14.625 9.375C14.625 9.58211 14.4571 9.75 14.25 9.75H9.75C9.54289 9.75 9.375 9.58211 9.375 9.375C9.375 9.16789 9.54289 9 9.75 9ZM9.375 10.875C9.375 10.6679 9.54289 10.5 9.75 10.5H14.25C14.4571 10.5 14.625 10.6679 14.625 10.875C14.625 11.0821 14.4571 11.25 14.25 11.25H9.75C9.54289 11.25 9.375 11.0821 9.375 10.875ZM9.75 12H14.25C14.4571 12 14.625 12.1679 14.625 12.375C14.625 12.5821 14.4571 12.75 14.25 12.75H9.75C9.54289 12.75 9.375 12.5821 9.375 12.375C9.375 12.1679 9.54289 12 9.75 12ZM9.75 13.5H12C12.2071 13.5 12.375 13.6679 12.375 13.875C12.375 14.0821 12.2071 14.25 12 14.25H9.75C9.54289 14.25 9.375 14.0821 9.375 13.875C9.375 13.6679 9.54289 13.5 9.75 13.5Z" fill="white"/>
</svg>
