<svg width="59" height="50" viewBox="0 0 59 50" fill="none" xmlns="http://www.w3.org/2000/svg">
<g clip-path="url(#clip0_550_2316)">
<path d="M17.8009 28.1397C17.8009 28.1397 18.4356 29.1967 18.95 30.7368C19.4644 32.2769 16.9396 38.1926 17.4469 39.4881C17.9542 40.7837 21.6778 41.2081 23.0016 40.8584C24.3253 40.5088 22.9024 32.7882 22.775 31.4846C22.6476 30.181 24.238 28.9219 24.238 28.9219C24.238 28.9219 21.5456 27.1675 17.8009 28.1397Z" fill="#3D69B7"/>
<path d="M16.3781 28.1639C16.3781 28.1639 17.0128 29.2209 17.5272 30.761C18.0393 32.301 15.5168 38.2168 16.0241 39.5123C16.5314 40.8078 20.255 41.2323 21.5788 40.8826C22.9025 40.533 21.4797 32.8124 21.3522 31.5088C21.2248 30.2072 22.8152 28.946 22.8152 28.946C22.8152 28.946 20.1228 27.1917 16.3781 28.1639Z" fill="#5180E0"/>
<path d="M15.4433 22.6889C15.5094 25.4133 14.457 27.6426 13.0908 27.6668C11.7269 27.6911 10.5659 25.5022 10.5022 22.7758C10.4361 20.0513 11.4886 17.8221 12.8548 17.7978C14.2187 17.7736 15.3796 19.9624 15.4433 22.6889Z" fill="#D65858"/>
<path d="M13.997 17.1954C12.5741 17.2197 11.4816 19.7117 11.5547 22.7575C11.6279 25.8053 12.8408 28.2548 14.2636 28.2286C24.8939 28.0406 42.0935 34.4455 42.0935 34.4455L41.7985 22.2219L41.5036 9.99829C41.5036 9.99829 24.6296 17.0074 13.997 17.1954Z" fill="#FF6F69"/>
<g style="mix-blend-mode:multiply" opacity="0.5">
<path d="M37.346 28.9601L35.1774 21.5366C35.1774 21.5366 33.6295 24.1236 34.1982 28.0668C27.7351 26.2963 18.5348 24.1762 11.687 24.2368C12.0457 26.5611 13.0816 28.2527 14.2661 28.2325C24.8964 28.0445 42.096 34.4494 42.096 34.4494L41.9992 30.4072C41.9992 30.4072 40.1917 29.7968 37.3483 28.9621L37.346 28.9601Z" fill="#FF6F69"/>
</g>
<path d="M42.1917 35.4448C45.8478 35.3803 48.6692 29.4087 48.4936 22.1068C48.318 14.8049 45.2119 8.93785 41.5558 9.00235C37.8998 9.06685 35.0784 15.0385 35.254 22.3404C35.4296 29.6422 38.5357 35.5093 42.1917 35.4448Z" fill="#5180E0"/>
<path d="M42.5116 33.0456C45.2959 32.9965 47.4365 28.1085 47.2927 22.1279C47.1489 16.1474 44.7751 11.339 41.9907 11.3881C39.2064 11.4372 37.0658 16.3252 37.2096 22.3058C37.3535 28.2864 39.7272 33.0947 42.5116 33.0456Z" fill="#005C7A"/>
<path d="M41.9922 11.3868C39.7222 11.4273 37.8793 14.6832 37.3555 19.1256L42.1928 19.7057L42.2541 22.2159L42.3155 24.7261L37.5088 25.4759C38.2474 29.896 40.2437 33.0853 42.516 33.0449C45.3005 32.9964 47.4407 28.1074 47.2967 22.1269C47.1528 16.1465 44.779 11.3383 41.9946 11.3868H41.9922Z" fill="#FFEEAD"/>
<g style="mix-blend-mode:multiply">
<path d="M41.9922 11.3869C41.7515 11.3909 41.5155 11.4334 41.2866 11.5082C43.7548 12.2034 45.7487 16.6862 45.8809 22.1513C46.013 27.6163 44.2362 32.1658 41.8034 32.9479C42.037 33.0146 42.273 33.047 42.5136 33.0429C45.298 32.9944 47.4383 28.1054 47.2943 22.125C47.1504 16.1446 44.7766 11.3364 41.9922 11.3849V11.3869Z" fill="#FFE5B0"/>
</g>
<path d="M42.3117 24.7265C42.9566 24.7151 43.4524 23.5823 43.4191 22.1962C43.3858 20.8102 42.8359 19.6958 42.191 19.7072C41.546 19.7186 41.0502 20.8514 41.0835 22.2375C41.1169 23.6235 41.6667 24.7379 42.3117 24.7265Z" fill="#0095A5"/>
<g style="mix-blend-mode:screen">
<path d="M42.9927 21.1184C43.0069 21.6722 42.7992 22.1249 42.5326 22.131C42.2636 22.135 42.0371 21.6904 42.0229 21.1366C42.0087 20.5828 42.2164 20.1301 42.483 20.1241C42.752 20.12 42.9786 20.5646 42.9927 21.1184Z" fill="#0095A5"/>
</g>
<g style="mix-blend-mode:multiply" opacity="0.5">
<path d="M41.8553 19.8208C41.3834 20.1422 41.0554 21.1042 41.0837 22.236C41.112 23.3678 41.4825 24.3198 41.971 24.6229C42.4429 24.3016 42.7709 23.3395 42.7426 22.2077C42.7143 21.0759 42.3438 20.124 41.8553 19.8208Z" fill="#0095A5"/>
</g>
<g style="mix-blend-mode:soft-light">
<path d="M13.8036 18.4769C13.6125 18.4809 13.452 18.3516 13.4426 18.1879C13.4331 18.0201 13.5841 17.8787 13.78 17.8706C15.3869 17.8059 16.9938 17.6664 18.5559 17.4542C18.7494 17.428 18.9311 17.5411 18.9618 17.7069C18.9925 17.8726 18.8603 18.0282 18.6669 18.0545C17.0788 18.2687 15.4459 18.4122 13.813 18.4769C13.8107 18.4769 13.8059 18.4769 13.8036 18.4769Z" fill="white"/>
</g>
<g style="mix-blend-mode:soft-light">
<path d="M20.4577 17.7695C20.2902 17.7715 20.1392 17.6745 20.1038 17.529C20.0637 17.3653 20.1864 17.2036 20.3775 17.1693C20.9627 17.0642 21.2907 16.9894 21.2954 16.9874C21.4842 16.9429 21.6777 17.0399 21.7296 17.2016C21.7792 17.3633 21.6682 17.529 21.4795 17.5735C21.4653 17.5775 21.1302 17.6523 20.5238 17.7614C20.5026 17.7655 20.479 17.7675 20.4577 17.7675V17.7695Z" fill="white"/>
</g>
</g>
<defs>
<clipPath id="clip0_550_2316">
<rect width="38" height="32" fill="white" transform="translate(10.5 9)"/>
</clipPath>
</defs>
</svg>
