<svg width="59" height="56" viewBox="0 0 59 56" fill="none" xmlns="http://www.w3.org/2000/svg">
<path d="M26.6199 17.2142C26.6199 17.2142 31.7595 11.8804 34.6464 9.822C35.0089 9.56308 35.5915 9.64723 35.818 9.98383L36.899 11.5762C37.0479 11.7963 36.9961 12.0617 36.776 12.2429C35.6368 13.1556 31.9148 15.8872 26.6263 17.2142H26.6199Z" fill="#922440"/>
<path d="M28.5682 17.2142C28.5682 17.2142 23.4286 11.8804 20.5481 9.822C20.1856 9.56308 19.6031 9.64723 19.3765 9.98383L18.2955 11.5762C18.1466 11.7963 18.1984 12.0617 18.4185 12.2429C19.5578 13.1556 23.2797 15.8872 28.5682 17.2142Z" fill="#922440"/>
<path d="M40.4006 16.3015H12.6831V20.0559H40.4006V16.3015Z" fill="#F26579"/>
<path d="M46.317 16.3015H40.4006V20.0559H46.317V16.3015Z" fill="#EF455D"/>
<path d="M40.407 20.0559H14.2883V46.3299H40.407V20.0559Z" fill="#F26579"/>
<path d="M45.346 20.0559H40.4006V46.3299H45.346V20.0559Z" fill="#EF455D"/>
<path d="M30.0501 16.3015H25.1436V46.3299H30.0501V16.3015Z" fill="#BA2440"/>
<g style="mix-blend-mode:multiply" opacity="0.3">
<path d="M45.3524 20.0559H14.2883V21.9331H45.3524V20.0559Z" fill="#3F5380"/>
</g>
<path d="M27.4934 14.6833C26.5807 14.6833 25.8428 15.253 25.8428 15.9521V16.3016H29.1505V15.9521C29.1505 15.253 28.4126 14.6833 27.4999 14.6833H27.4934Z" fill="#922440"/>
</svg>
