<svg width="48" height="45" viewBox="0 0 48 45" fill="none" xmlns="http://www.w3.org/2000/svg">
<g clip-path="url(#clip0_359_271)">
<g clip-path="url(#clip1_359_271)">
<path d="M6.61882 23.0881C6.61882 13.8477 14.4118 6.36015 24.0186 6.36015C33.6254 6.36015 41.3947 13.8509 41.3947 23.0881C41.3947 25.7436 40.7484 28.2557 39.6047 30.4844L45.5196 33.3223C47.1067 30.2368 48 26.7635 48 23.0881C48 10.3385 37.263 0 24.0186 0C10.7742 0 0 10.3385 0 23.0881C0 26.985 1.00501 30.6571 2.77815 33.8763L8.63222 30.9015C7.34635 28.5685 6.61544 25.9098 6.61544 23.0849L6.61882 23.0881Z" fill="#CCCCCC"/>
<path d="M22.7869 23.6361L26.9287 28.3183C26.9558 28.3509 26.9761 28.3802 27.0032 28.4095L31.6932 33.6651C32.5223 34.5905 32.167 35.2714 30.9014 35.1867L28.1842 34.9977C26.9186 34.9098 25.2064 34.0822 24.3773 33.1601L19.6839 27.9012C18.8515 26.9791 18.9564 25.5683 19.9174 24.77L21.545 23.4178C22.0594 23.1376 22.5162 23.3233 22.7903 23.6361H22.7869Z" fill="url(#paint0_linear_359_271)"/>
<path d="M32.9757 20.4984L27.2367 25.2783C26.3061 26.0538 26.1809 27.3962 26.9253 28.3183L22.7835 23.6362C22.5094 23.3234 22.0526 23.1376 21.5382 23.4178L25.6564 19.9869C26.614 19.1886 28.4345 18.6054 29.7001 18.6934L32.4173 18.8791C33.6829 18.967 33.9333 19.6936 32.9723 20.4919L32.9757 20.4984Z" fill="url(#paint1_linear_359_271)"/>
<path d="M21.924 20.935L19.0849 17.7451C19.6704 18.3935 19.5959 19.3873 18.9225 19.9477L14.8788 23.3135C14.202 23.8739 14.378 24.3855 15.268 24.4474L17.1832 24.581C18.0732 24.6429 19.3557 24.2323 20.0324 23.6719L23.1997 21.0099C22.8783 21.2771 22.1473 21.1859 21.9274 20.9382L21.924 20.935Z" fill="url(#paint2_linear_359_271)"/>
<path d="M24.2352 18.1034L20.7396 14.2163C20.1542 13.5679 18.9496 12.9847 18.0562 12.9261L16.1444 12.7925C15.251 12.7306 15.0006 13.2128 15.586 13.8612L19.0849 17.7483L21.8868 20.9056C22.2285 21.2868 22.8782 21.277 23.1997 21.0131L24.0727 20.3093C24.7495 19.7489 24.824 18.7551 24.2385 18.1067L24.2352 18.1034Z" fill="url(#paint3_linear_359_271)"/>
<path d="M8.46639 36.8123C8.87922 37.2195 9.55599 37.2358 9.98236 36.8416C10.1752 36.6656 10.2835 36.4343 10.3072 36.1997L10.473 36.3659L10.7437 36.115L10.2158 35.5839L10.3986 35.4145L9.99251 35.0104L9.80978 35.1799L9.28528 34.6553L9.01457 34.9062L9.177 35.0691C8.92998 35.0821 8.68634 35.1766 8.49684 35.3525C8.07048 35.7435 8.05694 36.3952 8.46639 36.8057M9.77256 35.6067C9.9722 35.8054 9.89438 36.1899 9.59998 36.4604C9.30558 36.7308 8.90629 36.7894 8.70326 36.5907C8.50361 36.3919 8.58144 36.0075 8.87583 35.737C9.17023 35.4633 9.57291 35.4047 9.77256 35.6067Z" fill="#00387F"/>
<path d="M11.5762 37.0436L11.39 36.8579L11.5592 36.7015L11.187 36.3301L9.63721 37.7572C9.57291 37.8158 9.57291 37.9103 9.63044 37.969L9.89438 38.2329L11.0787 37.1414L11.3731 37.4346L11.5728 37.2522C11.6303 37.1935 11.6337 37.1023 11.5728 37.0436" fill="#00387F"/>
<path d="M7.6272 37.4407C7.56629 37.3821 7.56967 37.2876 7.6272 37.2322L7.95882 36.9259C8.01634 36.8705 8.01973 36.7825 7.96559 36.7239L7.69488 36.4502L7.24144 36.8673C7.00795 37.0823 7.00119 37.4472 7.2279 37.672L8.82847 39.2751L9.1567 38.9721L7.62382 37.4407H7.6272Z" fill="#00387F"/>
<path d="M34.742 41.6182C35.2835 42.4165 37.9398 40.745 37.3984 39.95C36.8434 39.1322 34.1871 40.8037 34.742 41.6182ZM35.2293 41.3087C34.9586 40.9112 36.6404 39.8555 36.9111 40.253C37.1784 40.6473 35.5034 41.7095 35.2293 41.3087Z" fill="#00387F"/>
<path d="M33.5475 39.8876C33.754 40.1907 34.5187 40.0603 35.2598 39.5944C36.0008 39.1317 36.434 38.5061 36.2276 38.2064C36.1159 38.0435 35.8452 38.0076 35.5034 38.0793L35.9298 37.8121L35.7301 37.5156L34.6507 38.1933L34.5153 37.9913L34.0314 38.2944L34.1668 38.4964L33.0873 39.1741L33.287 39.4706L33.7134 39.2002C33.5069 39.4738 33.4325 39.728 33.5442 39.8876M34.7319 38.8157C35.2124 38.5127 35.6726 38.3726 35.7572 38.4996C35.8452 38.63 35.5237 38.9753 35.0466 39.2784C34.5661 39.5781 34.1059 39.7215 34.0179 39.5911C33.9333 39.4641 34.2514 39.1154 34.7319 38.8124" fill="#00387F"/>
<path d="M36.8874 38.9655C36.84 38.8971 36.7419 38.8775 36.6708 38.9231L33.9198 40.65L34.0517 40.8455C34.0991 40.9139 34.1939 40.9302 34.2649 40.8879L37.016 39.1577L36.884 38.9655H36.8874Z" fill="#00387F"/>
<path d="M14.2968 40.7614L14.4186 40.5822C14.4626 40.5138 14.4423 40.4193 14.3712 40.3769L14.1851 40.2629C14.4626 40.0739 14.642 39.8002 14.8213 39.533L15.0142 39.2463C15.0548 39.1844 15.0446 39.1062 14.9905 39.0573C14.9905 39.0573 14.9736 39.0443 14.9668 39.0378L12.6996 37.6367L12.4966 37.9397L14.4491 39.1453L14.1445 39.5982C14.0261 39.7741 13.9686 39.8556 13.7452 39.9892L13.7046 39.9631L11.7082 38.7315L11.5863 38.9107C11.5423 38.9791 11.5593 39.0704 11.6269 39.116L12.6624 39.7579L12.3883 40.1651L11.3224 39.507L11.2006 39.6862C11.16 39.7546 11.1803 39.8393 11.2446 39.8849L13.082 41.0221C13.1531 41.0677 13.1734 41.1589 13.1294 41.2306L12.6726 41.9051L13.126 42.1853L13.7825 41.2078C13.8298 41.1394 13.8095 41.0449 13.7351 40.9993L12.835 40.4421L13.1091 40.0348L14.29 40.7647L14.2968 40.7614Z" fill="#00387F"/>
<path d="M30.5055 41.566C30.8235 41.7908 31.3954 41.9505 31.8319 41.944L31.8827 41.5334C31.3345 41.478 30.6713 41.2402 30.4682 40.7058L30.4039 40.5364L31.2059 40.2562L31.0773 39.9141L28.9455 40.6602L29.0741 40.9991L29.8964 40.7123L29.9607 40.885C30.1806 41.4617 29.7948 41.9733 29.4192 42.3871L29.7441 42.6771C30.0182 42.4425 30.4006 41.957 30.5055 41.566Z" fill="#00387F"/>
<path d="M30.9555 43.3158C30.8743 43.3451 30.7863 43.306 30.7559 43.2246L30.6002 42.8173C30.5731 42.7423 30.4885 42.7032 30.4073 42.726L30.0385 42.8564L30.2517 43.4233C30.36 43.7165 30.7051 43.8697 31.013 43.7622L33.1855 43.003L33.0298 42.5957L30.9521 43.319L30.9555 43.3158Z" fill="#00387F"/>
<path d="M31.7406 39.5979L31.3785 39.725L32.1128 41.6702C32.1432 41.7484 32.2312 41.7875 32.3124 41.7582L32.6677 41.6343L31.9334 39.6859C31.903 39.6109 31.8184 39.5718 31.7406 39.5979Z" fill="#00387F"/>
<path d="M17.7517 41.2434C17.9581 40.683 17.6705 40.0802 17.1088 39.8912C16.5504 39.7022 15.9312 40.0053 15.7281 40.5624C15.5251 41.1228 15.8094 41.7289 16.3677 41.9179C16.926 42.1068 17.5453 41.8038 17.7517 41.2434ZM16.2459 40.7351C16.3914 40.3343 16.7298 40.0867 17.0039 40.1779C17.278 40.2692 17.3795 40.6667 17.234 41.0675C17.0885 41.4682 16.7501 41.7159 16.476 41.6246C16.2019 41.5334 16.1004 41.1359 16.2493 40.7351" fill="#00387F"/>
<path d="M15.9684 42.9377C15.8872 42.9116 15.8432 42.8269 15.8737 42.7455L16.0259 42.3317C16.0496 42.2567 16.0124 42.1785 15.938 42.1492L15.5657 42.0254L15.3593 42.5923C15.251 42.8856 15.4168 43.2147 15.7248 43.3189L17.9074 44.0553L18.0563 43.6448L15.9684 42.941V42.9377Z" fill="#00387F"/>
<path d="M18.9902 40.5262L18.6248 40.4023L17.9108 42.3541C17.8837 42.4322 17.9243 42.517 18.0055 42.543L18.3608 42.6636L19.0782 40.7021C19.1019 40.6272 19.0613 40.549 18.9868 40.5196" fill="#00387F"/>
<path d="M26.8712 43.2832L26.3095 43.3581C26.3602 43.9512 25.5481 44.4431 25.0338 44.6484L25.2808 45.0003C25.7647 44.8113 26.3636 44.4725 26.6715 44.0717C26.6715 44.0717 26.6817 44.0554 26.6952 44.0554C26.7088 44.0554 26.7189 44.0652 26.7189 44.0652C27.0911 44.3812 27.8288 44.5409 28.3229 44.593L28.4582 44.189C27.9066 44.1271 26.9862 43.8664 26.8678 43.2865" fill="#00387F"/>
<path d="M27.5953 40.9013L27.213 40.9534L27.487 42.8432C27.4972 42.9247 27.5784 42.9833 27.663 42.9703L28.0386 42.9181L27.7645 41.0186C27.751 40.9436 27.6765 40.8915 27.5953 40.898" fill="#00387F"/>
<path d="M26.6479 42.9568C26.6614 43.0415 26.7392 43.0969 26.8238 43.0871L27.1961 43.035L26.922 41.1452C26.9118 41.067 26.8374 41.0116 26.7528 41.0181L26.3738 41.0702L26.4042 41.2918L25.8797 41.3635L25.917 41.6241C25.9271 41.7056 26.0083 41.7642 26.0929 41.7545L26.4618 41.7056L26.6445 42.9633L26.6479 42.9568Z" fill="#00387F"/>
<path d="M26.3738 42.6996L25.4331 42.8267C25.3485 42.8365 25.2672 42.7811 25.2571 42.6964L25.0473 41.2432L24.5194 41.3148L24.7427 42.8234C24.7766 43.0678 25.0168 43.247 25.2774 43.2112L26.5802 43.0385L26.5463 42.8202C26.5294 42.7452 26.4584 42.6931 26.3771 42.6996" fill="#00387F"/>
<path d="M38.3492 36.9624C38.7824 36.5161 38.8805 35.9296 38.5658 35.6461C38.2511 35.3626 37.6454 35.4962 37.2123 35.9393C36.7791 36.3825 36.681 36.9722 36.9957 37.2557C37.3104 37.5392 37.9127 37.4088 38.3492 36.9657M37.4491 36.1479C37.6691 35.9263 37.9906 35.8774 38.1733 36.0436C38.356 36.2098 38.3289 36.5226 38.1124 36.7474C37.8958 36.969 37.571 37.0178 37.3882 36.8517C37.2055 36.6855 37.2326 36.3727 37.4491 36.1479Z" fill="#00387F"/>
<path d="M39.4659 38.4123C39.4084 38.4742 39.3069 38.4742 39.246 38.4188L38.9143 38.1223C38.8534 38.0669 38.7587 38.0702 38.7012 38.1223L38.4338 38.396L38.8907 38.8098C39.1275 39.0216 39.5031 39.0118 39.7299 38.7805L41.3676 37.1025L41.036 36.8027L39.4659 38.4123Z" fill="#00387F"/>
<path d="M39.9024 36.5352L39.4998 36.9458L39.6994 37.1282C39.7637 37.1836 39.8618 37.1804 39.9227 37.1217L40.2239 36.8122L40.3694 36.9425L40.7247 36.5776L38.7045 34.7595C38.6402 34.7073 38.5455 34.7106 38.488 34.7692L38.2308 35.0331L39.9024 36.5385V36.5352Z" fill="#00387F"/>
<path d="M39.4964 36.2807C39.4355 36.2285 39.3441 36.2318 39.2832 36.2839L37.6353 37.975L37.7943 38.1183C37.8586 38.1737 37.9567 38.1705 38.0142 38.1118L38.5997 37.5123L39.2155 38.0662L39.581 37.6915L38.9651 37.1376L39.6588 36.4273L39.493 36.2807H39.4964Z" fill="#00387F"/>
<path d="M2.07769 27.2687L1.95587 26.7474L3.50906 27.663L4.62235 26.0469L4.75094 26.591L3.74932 28.0116L4.74755 27.7933C4.78816 27.7868 4.83215 27.7738 4.88291 27.7607C4.93367 27.7477 4.97766 27.7347 5.02165 27.7216L5.12316 28.155C5.05887 28.1648 4.99119 28.1745 4.91675 28.1876C4.8423 28.2006 4.77124 28.2136 4.70695 28.2299L2.84244 28.6339C2.77815 28.647 2.71724 28.66 2.65633 28.6763C2.59542 28.6926 2.52098 28.7121 2.433 28.7382L2.33148 28.3049C2.37547 28.3016 2.42623 28.2951 2.47699 28.282C2.52774 28.2723 2.57512 28.2625 2.61234 28.256L3.4583 28.0703L2.08107 27.259L2.07769 27.2687Z" fill="#727069"/>
<path d="M3.60719 25.9687C3.46168 25.9818 3.31956 25.972 3.18759 25.9394C3.05562 25.9068 2.93718 25.8514 2.83229 25.7765C2.72739 25.7048 2.64279 25.6103 2.57511 25.493C2.50744 25.379 2.46683 25.2421 2.44991 25.089C2.43637 24.9489 2.44991 24.8186 2.4939 24.6948C2.53789 24.5709 2.5988 24.4634 2.6834 24.3657C2.77138 24.2712 2.87628 24.193 3.00148 24.1343C3.1233 24.0757 3.26203 24.0366 3.41431 24.0235C3.54628 24.0105 3.67825 24.0235 3.81022 24.0561C3.94219 24.0887 4.06062 24.1441 4.16891 24.219C4.27719 24.294 4.36856 24.3885 4.43962 24.5025C4.51068 24.6166 4.55467 24.7469 4.5682 24.8968C4.58174 25.0271 4.5682 25.1542 4.52421 25.278C4.48361 25.4018 4.41931 25.5093 4.33133 25.6103C4.24674 25.7081 4.14184 25.7895 4.01663 25.8514C3.89143 25.9166 3.75269 25.9557 3.6038 25.9687H3.60719ZM3.5632 25.5386C3.65118 25.5289 3.73577 25.5126 3.82037 25.4833C3.90158 25.4539 3.97603 25.4148 4.04032 25.3627C4.10461 25.3138 4.15537 25.2519 4.1926 25.1802C4.22643 25.1086 4.23997 25.0238 4.22982 24.9261C4.21967 24.8349 4.1926 24.7567 4.14184 24.6915C4.09446 24.6263 4.03017 24.5742 3.95573 24.5351C3.88466 24.4993 3.80684 24.4732 3.71886 24.4569C3.63088 24.4406 3.54289 24.4373 3.45491 24.4471C3.37032 24.4536 3.28572 24.4732 3.20113 24.5025C3.11653 24.5318 3.04208 24.5742 2.97779 24.6263C2.91688 24.6785 2.86612 24.7404 2.83229 24.8121C2.79506 24.8837 2.78153 24.9652 2.79168 25.0597C2.80183 25.1477 2.8289 25.2259 2.87966 25.2878C2.93042 25.3529 2.99133 25.4051 3.059 25.4442C3.13345 25.4833 3.21466 25.5126 3.29926 25.5289C3.38724 25.5452 3.47522 25.5484 3.5632 25.5419V25.5386Z" fill="#727069"/>
<path d="M2.74769 22.1895C2.74769 22.2644 2.76461 22.3361 2.79845 22.4012C2.83567 22.4664 2.88643 22.5251 2.95072 22.5739C3.01501 22.6228 3.09622 22.6619 3.19097 22.6912C3.28572 22.7206 3.39062 22.7368 3.50567 22.7401L4.22643 22.7564C4.30088 22.7564 4.37194 22.7564 4.43623 22.7499L4.42608 23.1865C4.36179 23.18 4.29073 23.1735 4.21628 23.1702C4.14184 23.1669 4.07078 23.1637 3.99971 23.1604L2.77476 23.1344C2.70708 23.1344 2.64617 23.1344 2.58526 23.1344C2.52435 23.1344 2.46006 23.1344 2.39238 23.1409L2.40253 22.7108C2.42961 22.7108 2.44991 22.714 2.46683 22.7173H2.66309C2.62925 22.7043 2.59541 22.6815 2.56158 22.6489C2.53112 22.6163 2.49728 22.5805 2.47021 22.5348C2.44652 22.4925 2.42284 22.4403 2.4093 22.385C2.39238 22.3296 2.38562 22.2677 2.389 22.2025C2.389 22.1569 2.39577 22.0982 2.40592 22.0298C2.41607 21.9614 2.43299 21.8962 2.45668 21.8408L2.84244 21.9092C2.81875 21.9516 2.79845 21.9972 2.78153 22.0493C2.76461 22.0982 2.75446 22.1471 2.75107 22.1927L2.74769 22.1895Z" fill="#727069"/>
<path d="M4.60883 19.8461C4.6359 19.9536 4.6562 20.0644 4.66974 20.1719C4.68327 20.2794 4.67989 20.4 4.66297 20.5303C4.63928 20.703 4.59191 20.8496 4.52423 20.9734C4.45655 21.094 4.36857 21.1917 4.26029 21.2667C4.15539 21.3416 4.03357 21.3905 3.89145 21.4166C3.74933 21.4426 3.59705 21.4426 3.43125 21.4231C3.28236 21.4068 3.15039 21.3644 3.03195 21.3025C2.91352 21.2406 2.81538 21.1657 2.73079 21.0712C2.65296 20.9767 2.59543 20.8724 2.56159 20.7486C2.52776 20.6281 2.52099 20.4945 2.53791 20.3511C2.55821 20.1882 2.60897 20.0546 2.68341 19.9503C2.75786 19.8461 2.85261 19.7614 2.96427 19.706C3.07594 19.6473 3.20791 19.6115 3.35342 19.5984C3.49892 19.5854 3.65458 19.5887 3.817 19.6115L3.62751 21.0093C3.72226 21.0191 3.80685 21.0093 3.88807 20.9832C3.96928 20.9571 4.03696 20.918 4.09786 20.8692C4.15877 20.8203 4.20953 20.7616 4.25014 20.6932C4.29074 20.6248 4.31443 20.5499 4.32458 20.4717C4.3415 20.3478 4.33812 20.2305 4.30766 20.1198C4.28059 20.009 4.2366 19.9145 4.18584 19.833L4.60883 19.8461ZM3.44478 19.9992C3.37372 19.9992 3.30943 19.9992 3.24513 20.0188C3.18084 20.0351 3.12331 20.0611 3.06917 20.097C3.01841 20.1295 2.97781 20.1752 2.94397 20.2273C2.91013 20.2794 2.88983 20.3381 2.87968 20.4032C2.86953 20.4782 2.87291 20.5499 2.89321 20.615C2.91352 20.6802 2.94397 20.7356 2.98796 20.7812C3.02857 20.8301 3.07932 20.8724 3.13347 20.905C3.19099 20.9376 3.24852 20.9604 3.31281 20.9734L3.44478 19.9992Z" fill="#727069"/>
<path d="M3.09961 18.4687C3.06239 18.3579 3.0387 18.2374 3.03531 18.1038C3.02855 17.9702 3.04547 17.8431 3.0793 17.7193C3.15713 17.4359 3.28234 17.2501 3.45491 17.1654C3.62411 17.0807 3.84744 17.0709 4.11815 17.1426L4.95734 17.3577C4.98442 17.3642 5.01825 17.3739 5.05209 17.3805C5.08593 17.387 5.11977 17.3935 5.15361 17.4C5.18745 17.4065 5.2179 17.4163 5.24497 17.4196C5.27543 17.4261 5.29911 17.4261 5.31603 17.4293L5.21113 17.8138C5.17391 17.804 5.14007 17.7975 5.10623 17.7877C5.0724 17.778 5.03856 17.7715 5.00472 17.7649C5.04871 17.8301 5.08255 17.9148 5.113 18.0256C5.14007 18.1364 5.13669 18.2569 5.09947 18.384C5.06901 18.4948 5.03179 18.5893 4.98103 18.6707C4.93366 18.7555 4.87613 18.8239 4.80846 18.8727C4.74078 18.9249 4.65957 18.9575 4.57159 18.9705C4.48361 18.9868 4.38547 18.977 4.27719 18.9509C4.15199 18.9184 4.05724 18.863 3.98956 18.7783C3.92188 18.6968 3.87789 18.6023 3.85082 18.498C3.82375 18.3938 3.8136 18.2895 3.82037 18.1787C3.82714 18.068 3.84406 17.9669 3.86774 17.8757C3.88466 17.8171 3.90158 17.7584 3.9185 17.6998C3.93542 17.6411 3.95572 17.5857 3.97264 17.5271C3.82375 17.501 3.69855 17.5075 3.6038 17.5531C3.50567 17.5955 3.43799 17.6965 3.394 17.8497C3.36693 17.9409 3.36355 18.0517 3.38047 18.1787C3.39739 18.3058 3.42784 18.4231 3.47522 18.5339L3.09961 18.4622V18.4687ZM4.28057 17.6118C4.27381 17.6281 4.27042 17.6476 4.26365 17.6639C4.25689 17.6802 4.2535 17.6998 4.24674 17.7193L4.21966 17.8203C4.20613 17.8692 4.19259 17.9311 4.17906 18.0028C4.16552 18.0777 4.16214 18.1494 4.16552 18.2244C4.17229 18.296 4.18921 18.3612 4.22305 18.4231C4.25689 18.485 4.31103 18.5241 4.39224 18.5469C4.43961 18.5567 4.4836 18.5567 4.52421 18.5469C4.56482 18.5339 4.60204 18.5143 4.63588 18.4883C4.66972 18.4622 4.70017 18.4296 4.72386 18.3938C4.74755 18.3579 4.76446 18.3221 4.77462 18.2863C4.82199 18.1233 4.80846 17.9865 4.74078 17.8725C4.6731 17.7584 4.5682 17.6867 4.43285 17.6509L4.28057 17.6118Z" fill="#727069"/>
<path d="M6.29061 14.7442C6.34813 14.767 6.38874 14.7865 6.41919 14.7963L6.21616 15.2003C6.16202 15.171 6.09773 15.1384 6.03343 15.1059C5.96576 15.0733 5.90146 15.0439 5.83717 15.0146L4.10802 14.2294C4.04711 14.2001 3.9862 14.174 3.91852 14.1447C3.85085 14.1153 3.78655 14.0893 3.72226 14.0665L3.92191 13.6592C3.92191 13.6592 3.95575 13.6755 3.97943 13.6852C4.00312 13.6983 4.02681 13.7113 4.05049 13.7211C4.07418 13.7341 4.10125 13.7472 4.12494 13.7602C4.14863 13.77 4.16893 13.7797 4.18585 13.7895L6.15187 14.6855C6.18571 14.7018 6.2297 14.7214 6.28722 14.7442H6.29061Z" fill="#727069"/>
<path d="M5.60367 12.1112C5.74579 11.8929 5.9116 11.7691 6.10786 11.7463C6.30413 11.7202 6.52069 11.7789 6.75418 11.9157L7.56969 12.3947C7.64752 12.4403 7.72196 12.4794 7.78964 12.5087L7.54938 12.8834C7.49863 12.8476 7.4411 12.8085 7.37681 12.7726C7.3159 12.7335 7.25499 12.6977 7.19408 12.6618L6.65943 12.3458C6.45978 12.2318 6.30074 12.1698 6.17892 12.1601C6.0571 12.1503 5.9522 12.2057 5.87099 12.3262C5.82362 12.4012 5.79655 12.4794 5.79316 12.5576C5.79316 12.6358 5.8067 12.7107 5.84054 12.7857C5.87776 12.8606 5.9319 12.9323 5.99958 13.0007C6.07064 13.0691 6.15524 13.131 6.25337 13.1897L6.87938 13.5579C6.90984 13.5742 6.94367 13.5937 6.97075 13.61C7.0012 13.6263 7.03166 13.6426 7.05873 13.6556L6.82186 14.0238C6.7711 13.988 6.71357 13.9521 6.64928 13.913C6.58499 13.8739 6.52408 13.8381 6.46655 13.8022L5.45478 13.2092C5.39725 13.1734 5.33296 13.1408 5.27205 13.105C5.21114 13.0691 5.14685 13.0365 5.08594 13.0072L5.32281 12.6358C5.32281 12.6358 5.35326 12.6618 5.36341 12.6684C5.37357 12.6749 5.3871 12.6847 5.39725 12.6912L5.51569 12.7596C5.42432 12.5608 5.45139 12.3458 5.5969 12.1145L5.60367 12.1112Z" fill="#727069"/>
<path d="M6.71018 10.3749C6.65604 10.3326 6.59851 10.2902 6.54098 10.2511C6.48346 10.2088 6.42593 10.1697 6.36841 10.1306L6.64927 9.78846C6.68649 9.8243 6.7271 9.85688 6.77447 9.89273C6.82185 9.92857 6.86245 9.96115 6.90306 9.99047L7.1027 10.1436L7.26175 9.95137C7.28543 9.92205 7.31589 9.88621 7.34296 9.84711C7.37341 9.80801 7.40048 9.77217 7.42079 9.73633L7.70842 9.95463C7.67796 9.9807 7.65089 10.0133 7.62043 10.0491C7.58998 10.085 7.56291 10.1175 7.53922 10.1436L7.37341 10.3489L8.21599 10.9875C8.31413 11.0624 8.39534 11.095 8.45625 11.0885C8.52054 11.082 8.58145 11.0429 8.63898 10.9712C8.66605 10.9386 8.68635 10.8995 8.69988 10.8539C8.71342 10.8083 8.72696 10.7594 8.73372 10.7008L9.0315 10.9256C9.01458 10.9745 8.9909 11.0266 8.96383 11.0755C8.93675 11.1276 8.90292 11.1732 8.86569 11.2221C8.74049 11.372 8.60852 11.4632 8.46301 11.4958C8.32089 11.5284 8.16524 11.4828 8.00281 11.3589L7.09932 10.6747L6.98427 10.8181C6.96058 10.8441 6.93351 10.88 6.90644 10.9158C6.87937 10.9549 6.8523 10.9875 6.83538 11.0201L6.54437 10.8018C6.57482 10.7725 6.60866 10.7366 6.63912 10.7008C6.66957 10.6649 6.69664 10.6324 6.72371 10.5998L6.82861 10.4694L6.70341 10.3749H6.71018Z" fill="#727069"/>
<path d="M10.6389 9.20175C10.5915 9.30275 10.5407 9.40376 10.4798 9.49499C10.4223 9.58948 10.3445 9.68071 10.2463 9.7752C10.1177 9.89902 9.98915 9.99025 9.85718 10.0456C9.72521 10.1043 9.59324 10.1304 9.46127 10.1271C9.3293 10.1271 9.20071 10.0945 9.07551 10.0326C8.94692 9.9707 8.8251 9.88272 8.70667 9.76869C8.60177 9.66768 8.52056 9.5569 8.46303 9.4396C8.40889 9.3223 8.37844 9.20175 8.37167 9.08119C8.36828 8.96063 8.38859 8.84334 8.43934 8.72604C8.48672 8.60874 8.56793 8.50122 8.67283 8.39695C8.79127 8.27966 8.91647 8.20146 9.04167 8.16236C9.16687 8.12 9.29546 8.11023 9.42066 8.12977C9.54587 8.14932 9.67107 8.1982 9.79627 8.26988C9.92147 8.34482 10.0399 8.43931 10.1583 8.55009L9.12288 9.55038C9.19056 9.61229 9.26501 9.65465 9.34622 9.68071C9.42743 9.70678 9.50526 9.71655 9.58647 9.71329C9.6643 9.71004 9.74213 9.69374 9.81996 9.66116C9.8944 9.62858 9.96208 9.58622 10.0196 9.53083C10.111 9.44286 10.182 9.34511 10.2294 9.24085C10.2768 9.13658 10.3038 9.03883 10.314 8.94108L10.6389 9.19849V9.20175ZM9.61693 8.64458C9.56617 8.60222 9.50526 8.56638 9.44435 8.54032C9.38344 8.51751 9.31915 8.50448 9.25485 8.50122C9.19394 8.50122 9.12965 8.50773 9.07213 8.53054C9.01122 8.55335 8.95707 8.58919 8.90632 8.63481C8.84879 8.6902 8.80818 8.74885 8.7845 8.81075C8.76081 8.87592 8.75066 8.93783 8.75404 8.99973C8.75404 9.06164 8.76758 9.12355 8.79465 9.1822C8.81834 9.24085 8.85218 9.29298 8.89278 9.34185L9.61354 8.64458H9.61693Z" fill="#727069"/>
<path d="M11.1193 6.81975C11.0584 6.86537 11.0144 6.92401 10.984 6.99244C10.9535 7.06086 10.94 7.1358 10.9468 7.214C10.9468 7.29546 10.9671 7.37691 11.0043 7.46489C11.0415 7.55286 11.0957 7.64083 11.1667 7.72555L11.6168 8.26642C11.6641 8.32181 11.7081 8.37069 11.7555 8.41304L11.4002 8.68674C11.363 8.63461 11.3258 8.58247 11.2784 8.52383C11.2344 8.46518 11.1904 8.40979 11.1464 8.35765L10.3817 7.43882C10.3411 7.38995 10.3004 7.34107 10.2598 7.29872C10.2192 7.25636 10.1752 7.20748 10.1279 7.16187L10.4798 6.89469C10.4933 6.91424 10.5069 6.93379 10.517 6.94682C10.5272 6.9566 10.5373 6.96963 10.5441 6.9794L10.6388 7.09344C10.6287 7.0576 10.6287 7.0185 10.6321 6.97615C10.6354 6.93053 10.6456 6.88491 10.6625 6.83604C10.6828 6.79042 10.7065 6.74155 10.7403 6.69593C10.7742 6.64706 10.8182 6.6047 10.8723 6.56235C10.9095 6.53302 10.9603 6.50044 11.0246 6.4646C11.0889 6.42876 11.1498 6.39943 11.2073 6.37988L11.4002 6.70897C11.3528 6.71874 11.3021 6.73503 11.2513 6.75133C11.2006 6.76762 11.1566 6.79368 11.1193 6.82301V6.81975Z" fill="#727069"/>
<path d="M12.7673 5.2953C12.9974 5.15846 13.2038 5.12262 13.3933 5.18778C13.5794 5.24969 13.7452 5.39305 13.8907 5.61787L14.3949 6.3966C14.4423 6.47154 14.4897 6.53671 14.537 6.5921L14.1479 6.82343C14.1174 6.76804 14.0836 6.70939 14.0464 6.64749C14.0092 6.58558 13.9719 6.52693 13.9347 6.47154L13.6031 5.95673C13.4813 5.76775 13.3662 5.64394 13.2647 5.58203C13.1598 5.52013 13.0414 5.52664 12.9094 5.59507C12.8316 5.64394 12.7707 5.69933 12.7334 5.76775C12.6928 5.83618 12.6725 5.91112 12.6692 5.98932C12.6692 6.07403 12.6793 6.16201 12.7098 6.25324C12.7402 6.34447 12.7876 6.4357 12.8451 6.53019L13.2309 7.12645C13.2512 7.15578 13.2715 7.1851 13.2884 7.21443C13.3087 7.24049 13.3256 7.26656 13.3459 7.29262L12.9602 7.5207C12.9297 7.46531 12.8993 7.40667 12.8587 7.34476C12.8214 7.28285 12.7842 7.2242 12.747 7.16881L12.1244 6.2011C12.0871 6.14571 12.0499 6.09032 12.0093 6.02842C11.9687 5.96977 11.9315 5.91438 11.8909 5.85899L12.2766 5.63091C12.2868 5.65046 12.2935 5.66349 12.3003 5.67652C12.3071 5.6863 12.3105 5.69933 12.3206 5.70911L12.3951 5.82314C12.4086 5.60484 12.5338 5.42564 12.7741 5.28227L12.7673 5.2953Z" fill="#727069"/>
<path d="M16.7805 5.48115C16.6993 5.55935 16.6113 5.63429 16.52 5.70272C16.4286 5.76788 16.3237 5.82979 16.1985 5.88192C16.0327 5.95035 15.8771 5.9927 15.7349 5.99922C15.5894 6.00574 15.4575 5.98619 15.3356 5.93731C15.2138 5.8917 15.1055 5.81676 15.0108 5.71575C14.916 5.61474 14.8314 5.49093 14.7638 5.34105C14.7029 5.21072 14.669 5.08039 14.6622 4.95006C14.6555 4.82298 14.6724 4.70243 14.713 4.58513C14.7536 4.47435 14.8213 4.37008 14.9093 4.27885C15.0006 4.18762 15.1123 4.11268 15.251 4.05403C15.4067 3.98561 15.5522 3.95628 15.6842 3.9628C15.8161 3.96932 15.938 4.00516 16.0496 4.06381C16.1613 4.12571 16.2594 4.21369 16.3474 4.32773C16.4354 4.43851 16.5098 4.56884 16.5775 4.7122L15.2375 5.28566C15.2781 5.36712 15.3323 5.43228 15.3965 5.48441C15.4608 5.53655 15.5319 5.57564 15.6063 5.59845C15.6808 5.62126 15.762 5.63104 15.8432 5.63104C15.9244 5.63104 16.0023 5.61149 16.0801 5.5789C16.1985 5.52677 16.3 5.46161 16.3846 5.38015C16.4692 5.29869 16.5335 5.21723 16.5775 5.12926L16.7839 5.48115H16.7805ZM16.0395 4.60794C16.0056 4.54929 15.965 4.50042 15.9177 4.4548C15.8703 4.41244 15.8161 4.3766 15.7586 4.35053C15.7011 4.32773 15.6402 4.31469 15.5759 4.31469C15.5116 4.31469 15.4473 4.32773 15.383 4.35379C15.3119 4.38638 15.251 4.42547 15.2037 4.47761C15.1563 4.52974 15.1225 4.58187 15.1055 4.64052C15.0818 4.69917 15.0717 4.76108 15.0717 4.82624C15.0717 4.89141 15.0818 4.95006 15.1021 5.00871L16.0395 4.60794Z" fill="#727069"/>
<path d="M17.2611 3.18082C17.2408 3.11892 17.2205 3.05049 17.1968 2.98858C17.1765 2.92342 17.1494 2.85825 17.1257 2.79635L17.5588 2.66602C17.569 2.71489 17.5825 2.76376 17.5995 2.81915C17.6164 2.87129 17.6333 2.92342 17.6502 2.96903L17.728 3.20363L17.9717 3.13195C18.0089 3.11892 18.0529 3.10588 18.1003 3.08959C18.1476 3.0733 18.1916 3.05701 18.2289 3.04072L18.3405 3.37632C18.2999 3.38284 18.2593 3.39261 18.2119 3.40564C18.1646 3.41868 18.124 3.43171 18.0901 3.44148L17.8296 3.51968L18.1476 4.50368C18.1849 4.61772 18.2322 4.6894 18.2864 4.71873C18.3405 4.74805 18.415 4.74805 18.5063 4.71873C18.5469 4.70569 18.5875 4.68614 18.6248 4.65682C18.6654 4.6275 18.7026 4.59165 18.7432 4.55256L18.8549 4.89467C18.8109 4.92726 18.7635 4.95658 18.7127 4.98265C18.6586 5.00871 18.6045 5.03152 18.5435 5.04781C18.3541 5.10646 18.1882 5.10646 18.0495 5.05759C17.9142 5.00546 17.8126 4.8849 17.7517 4.69266L17.41 3.64024L17.2306 3.69563C17.1934 3.7054 17.1528 3.71844 17.1088 3.73473C17.0614 3.75102 17.0208 3.76731 16.987 3.78034L16.8787 3.44474C16.9227 3.43497 16.9701 3.42519 17.0174 3.41216C17.0648 3.39913 17.1088 3.38609 17.146 3.37632L17.3118 3.32744L17.2645 3.18082H17.2611Z" fill="#727069"/>
<path d="M23.2945 2.78297C23.2979 2.99475 23.2742 3.17722 23.2234 3.33036C23.1727 3.4835 23.1185 3.61708 23.061 3.72787C23.1456 3.80932 23.2302 3.88752 23.3148 3.96572C23.3994 4.04392 23.4874 4.12538 23.5855 4.21335L23.0644 4.25896C23.0271 4.22312 22.9865 4.18728 22.9493 4.14818C22.9121 4.11234 22.8715 4.07324 22.8343 4.0374C22.7429 4.13515 22.6346 4.21661 22.5094 4.27526C22.3842 4.33716 22.2421 4.373 22.0797 4.38604C21.9375 4.39907 21.8123 4.39255 21.6939 4.36649C21.5789 4.34042 21.4773 4.29806 21.3961 4.23941C21.3115 4.18077 21.2439 4.10583 21.1931 4.01785C21.1423 3.92988 21.1119 3.82887 21.1017 3.71809C21.0848 3.53237 21.1254 3.37597 21.2303 3.24238C21.3318 3.10879 21.4706 2.99475 21.6432 2.90026C21.5619 2.81881 21.4841 2.73409 21.4198 2.64612C21.3521 2.55815 21.3115 2.45388 21.3014 2.33658C21.2912 2.23232 21.3014 2.13783 21.3318 2.05637C21.3623 1.97492 21.4097 1.90323 21.4706 1.84458C21.5315 1.78594 21.6059 1.74032 21.6939 1.70774C21.7819 1.6719 21.8766 1.64909 21.9815 1.64257C22.0763 1.6328 22.1643 1.64257 22.2522 1.65886C22.3402 1.67515 22.4181 1.70774 22.4857 1.75009C22.5534 1.79571 22.6109 1.85436 22.6549 1.92604C22.6989 1.99772 22.726 2.0857 22.7361 2.1867C22.7429 2.26816 22.7361 2.34636 22.7057 2.41804C22.6786 2.48972 22.638 2.55815 22.5872 2.6168C22.5365 2.68196 22.479 2.73735 22.4113 2.78948C22.3436 2.84162 22.2793 2.88397 22.2116 2.91981L22.7734 3.46395C22.8106 3.38249 22.8377 3.288 22.8478 3.18048C22.8613 3.07295 22.8681 2.9524 22.8647 2.81555L23.2911 2.77971L23.2945 2.78297ZM21.5281 3.6627C21.5416 3.79955 21.5992 3.90707 21.7041 3.98201C21.8056 4.05695 21.9443 4.08628 22.1101 4.07324C22.2218 4.06347 22.3165 4.03089 22.3978 3.97549C22.4756 3.92336 22.5365 3.86471 22.5771 3.79955L21.88 3.12834C21.8326 3.16093 21.7853 3.19677 21.7413 3.23261C21.6973 3.26845 21.6567 3.30755 21.6296 3.34991C21.5958 3.39226 21.5721 3.44114 21.5518 3.49001C21.5349 3.54214 21.5281 3.59754 21.5349 3.65944L21.5281 3.6627ZM21.7041 2.304C21.7041 2.34636 21.721 2.3822 21.7379 2.4213C21.7548 2.45714 21.7785 2.49298 21.8056 2.52556C21.8326 2.55815 21.8631 2.59073 21.8969 2.62005C21.9274 2.64938 21.9579 2.67544 21.9883 2.70151C22.0221 2.68522 22.0594 2.65915 22.1 2.62657C22.144 2.59399 22.1812 2.55815 22.2184 2.51905C22.2556 2.47995 22.2827 2.43759 22.3064 2.38872C22.3301 2.33984 22.3368 2.29097 22.3335 2.23884C22.3233 2.12805 22.2827 2.04986 22.2184 2.0075C22.1541 1.9684 22.0763 1.95211 21.9917 1.95862C21.9071 1.9684 21.836 2.00098 21.7751 2.05963C21.7176 2.11828 21.6905 2.20299 21.7041 2.30726V2.304Z" fill="#727069"/>
<path d="M27.6461 2.32036C27.5344 2.26497 27.4363 2.22261 27.3517 2.19003C27.2705 2.15745 27.1791 2.1379 27.0844 2.12486C27.0269 2.11835 26.966 2.11509 26.9017 2.11835C26.8374 2.11835 26.7798 2.13138 26.7257 2.15093C26.6682 2.17048 26.6208 2.19655 26.5836 2.23564C26.5464 2.27474 26.5227 2.32362 26.5125 2.38553C26.5058 2.43766 26.5125 2.48327 26.5396 2.52889C26.5667 2.5745 26.6039 2.62012 26.6513 2.66248C26.6952 2.70158 26.7528 2.74719 26.8238 2.78629C26.8915 2.82865 26.966 2.87427 27.0438 2.91988C27.1216 2.96876 27.1961 3.02089 27.2739 3.07628C27.3517 3.13167 27.4194 3.19358 27.4769 3.262C27.5311 3.33042 27.5751 3.40862 27.6055 3.49334C27.636 3.57805 27.6427 3.67254 27.6292 3.78007C27.6089 3.92343 27.5615 4.04399 27.4871 4.13522C27.4126 4.22645 27.3213 4.29813 27.213 4.35026C27.1013 4.4024 26.9761 4.43172 26.8408 4.44475C26.702 4.45779 26.5633 4.45453 26.4178 4.43824C26.3163 4.4252 26.2147 4.39914 26.1098 4.36004C26.0049 4.32094 25.9034 4.27858 25.8019 4.23297L25.9102 3.85501C25.944 3.87456 25.988 3.89736 26.0354 3.92017C26.0828 3.94298 26.1369 3.96579 26.1944 3.98859C26.2486 4.0114 26.3061 4.03095 26.3602 4.04724C26.4144 4.06354 26.4685 4.07657 26.5193 4.08308C26.5836 4.09286 26.6513 4.09286 26.7257 4.0896C26.8001 4.08308 26.8678 4.07005 26.9321 4.04399C26.9964 4.02118 27.0539 3.98534 27.1013 3.93972C27.1487 3.89411 27.1791 3.82894 27.1893 3.75074C27.1994 3.68883 27.1893 3.63344 27.1588 3.58131C27.1318 3.52918 27.0945 3.4803 27.0472 3.43469C26.9998 3.39233 26.9457 3.34997 26.8814 3.31087C26.8171 3.27178 26.7562 3.23268 26.6952 3.19358C26.614 3.1447 26.5362 3.09257 26.455 3.03718C26.3738 2.98179 26.3027 2.91662 26.2418 2.8482C26.1809 2.77978 26.1335 2.70809 26.0997 2.62664C26.0659 2.54518 26.0557 2.45721 26.0692 2.36272C26.0862 2.24542 26.1234 2.14767 26.1877 2.06296C26.252 1.97824 26.3298 1.91308 26.4245 1.86094C26.5159 1.81207 26.6242 1.77949 26.746 1.7632C26.8678 1.7469 26.993 1.7469 27.125 1.7632C27.2197 1.77623 27.3246 1.79578 27.4431 1.8251C27.5615 1.85443 27.6698 1.89353 27.7747 1.9424L27.6529 2.32036H27.6461Z" fill="#727069"/>
<path d="M29.893 4.99493C29.7779 5.00796 29.6629 5.01122 29.5478 5.01122C29.4362 5.01122 29.311 4.99167 29.179 4.95909C29.003 4.91673 28.8575 4.85156 28.7425 4.77011C28.6274 4.68865 28.5361 4.5909 28.4718 4.48012C28.4075 4.36934 28.3702 4.24878 28.3635 4.11194C28.3567 3.97509 28.3736 3.82847 28.4142 3.67207C28.4515 3.53522 28.509 3.41141 28.5868 3.30714C28.6646 3.20288 28.756 3.11816 28.8643 3.053C28.9692 2.99109 29.0876 2.94873 29.2162 2.93244C29.3482 2.91615 29.4835 2.92592 29.629 2.96177C29.7949 3.00412 29.9268 3.06603 30.025 3.15075C30.1231 3.23546 30.1975 3.33321 30.2415 3.45051C30.2855 3.56455 30.3058 3.69162 30.3024 3.83172C30.299 3.97183 30.2754 4.11845 30.2314 4.27159L28.8135 3.91318C28.7932 4.00115 28.7898 4.08261 28.8068 4.16407C28.8237 4.24227 28.8541 4.31721 28.8947 4.37911C28.9387 4.44428 28.9929 4.49641 29.0572 4.54529C29.1248 4.5909 29.1959 4.62674 29.2737 4.64629C29.3989 4.67888 29.5241 4.68865 29.6392 4.67562C29.7576 4.66258 29.8625 4.63652 29.9539 4.59742L29.8828 4.99819L29.893 4.99493ZM29.8862 3.86757C29.8998 3.8024 29.8997 3.73723 29.893 3.67533C29.8828 3.61342 29.8659 3.55477 29.8355 3.49612C29.805 3.44399 29.7644 3.39837 29.717 3.35928C29.6663 3.32018 29.6087 3.29085 29.5411 3.27456C29.4632 3.25501 29.3922 3.24849 29.3211 3.26153C29.2534 3.2713 29.1925 3.29411 29.1384 3.32995C29.0842 3.36253 29.0335 3.40489 28.9929 3.45376C28.9523 3.50264 28.9218 3.55803 28.8981 3.61342L29.8862 3.86431V3.86757Z" fill="#727069"/>
<path d="M32.7185 4.44493C32.6576 4.38302 32.5967 4.33089 32.5324 4.29179C32.4681 4.24943 32.4072 4.21685 32.3429 4.19404C32.2448 4.15494 32.15 4.13865 32.0586 4.14191C31.9673 4.14191 31.8827 4.16472 31.8082 4.20056C31.7304 4.23966 31.6594 4.29179 31.5984 4.35696C31.5375 4.42538 31.4868 4.50358 31.4529 4.58829C31.4157 4.67952 31.3954 4.7675 31.392 4.85873C31.392 4.9467 31.4022 5.03142 31.4326 5.11287C31.4631 5.19107 31.5105 5.26601 31.5748 5.33118C31.639 5.39309 31.7236 5.44522 31.8252 5.48432C31.8793 5.50387 31.9504 5.52016 32.0383 5.53319C32.1263 5.54297 32.2143 5.54297 32.3057 5.52668L32.2109 5.87857C32.0993 5.88183 31.9977 5.87205 31.8996 5.84924C31.8049 5.82318 31.7236 5.80037 31.6594 5.7743C31.5138 5.71566 31.3886 5.64072 31.2837 5.54948C31.1788 5.45499 31.101 5.35073 31.0469 5.23343C30.9893 5.11287 30.9589 4.9858 30.9555 4.85221C30.9521 4.71537 30.9792 4.57852 31.0401 4.43841C31.101 4.29505 31.1788 4.17449 31.277 4.07674C31.3751 3.979 31.4868 3.90731 31.612 3.85844C31.7338 3.81282 31.8692 3.79002 32.0113 3.79328C32.1534 3.79328 32.3023 3.82586 32.4512 3.88451C32.5358 3.91709 32.6204 3.95945 32.7016 4.00832C32.7828 4.06045 32.8471 4.10607 32.8945 4.15168L32.7185 4.45145V4.44493Z" fill="#727069"/>
<path d="M33.8318 6.69575C33.7066 6.70552 33.578 6.66968 33.4359 6.598C33.2092 6.47418 33.0772 6.32105 33.0434 6.13532C33.0129 5.9496 33.0637 5.74107 33.199 5.50974L33.6592 4.71472C33.6795 4.67888 33.6998 4.64304 33.7201 4.60719C33.7404 4.57135 33.7574 4.53551 33.7743 4.50293L34.1668 4.71472C34.1296 4.76685 34.0957 4.82224 34.0551 4.88741C34.0179 4.94931 33.9807 5.00796 33.9502 5.06661L33.6491 5.58793C33.534 5.78343 33.4765 5.93983 33.4697 6.05713C33.463 6.17442 33.5205 6.26891 33.6423 6.3406C33.7201 6.38295 33.798 6.4025 33.8826 6.39924C33.9638 6.39924 34.045 6.37644 34.1296 6.3406C34.2108 6.3015 34.2886 6.24611 34.3631 6.17442C34.4375 6.09948 34.5052 6.01477 34.5627 5.91376L34.8774 5.36963C34.8977 5.33379 34.918 5.29795 34.9383 5.26211C34.9586 5.22627 34.9755 5.19043 34.9891 5.1611L35.3884 5.37289C35.3512 5.42502 35.3139 5.48041 35.2767 5.54558C35.2361 5.60748 35.2023 5.66613 35.1684 5.72152L34.5966 6.71204C34.5627 6.76743 34.5323 6.82608 34.4984 6.89124C34.4646 6.95315 34.4341 7.01506 34.4071 7.07696L34.0111 6.86518C34.0247 6.83911 34.0382 6.81956 34.0518 6.80001C34.0653 6.78372 34.0754 6.76417 34.0856 6.74462L34.177 6.58822C34.0754 6.65991 33.9604 6.69901 33.8386 6.70878L33.8318 6.69575Z" fill="#727069"/>
<path d="M36.9111 6.76412C36.8502 6.72176 36.7791 6.69569 36.7013 6.68592C36.6235 6.67614 36.549 6.68592 36.4712 6.70872C36.39 6.73153 36.3122 6.77063 36.2343 6.82928C36.1565 6.88793 36.0821 6.95961 36.0144 7.05084L35.5914 7.61127C35.5474 7.66992 35.5102 7.72531 35.4797 7.7807L35.1109 7.52329C35.1515 7.47768 35.1955 7.42554 35.2429 7.3669C35.2902 7.30825 35.3309 7.25611 35.3748 7.20072L36.0922 6.25257C36.1294 6.20043 36.1667 6.1483 36.2005 6.10269C36.2343 6.05381 36.2682 6.00168 36.3054 5.94629L36.6675 6.19718C36.6506 6.21673 36.637 6.23302 36.6269 6.24605C36.6167 6.25908 36.61 6.26886 36.5998 6.28189L36.5118 6.39919C36.5457 6.3829 36.5829 6.36661 36.6303 6.36009C36.6742 6.35357 36.725 6.35031 36.7791 6.35357C36.8299 6.35683 36.8874 6.36986 36.9416 6.38941C36.9991 6.40571 37.0532 6.43829 37.1108 6.47413C37.1514 6.5002 37.1954 6.53929 37.2495 6.58817C37.3036 6.63704 37.3476 6.68592 37.3849 6.73479L37.104 6.99871C37.0769 6.95635 37.0532 6.914 37.0194 6.87164C36.9889 6.82928 36.9517 6.79344 36.9145 6.76737L36.9111 6.76412Z" fill="#727069"/>
<path d="M37.2664 8.74193C37.2326 8.77777 37.1987 8.81687 37.1615 8.86248C37.1243 8.90484 37.0904 8.9472 37.06 8.98304L36.7115 8.69305C36.7554 8.64744 36.8028 8.59856 36.857 8.54643C36.9077 8.4943 36.9551 8.44217 36.9991 8.39329L37.7774 7.52985C37.8214 7.48098 37.8654 7.4321 37.9127 7.37671C37.9601 7.32458 38.0041 7.26919 38.0447 7.2138L38.3898 7.50378C38.3628 7.53311 38.3289 7.56569 38.2917 7.60805C38.2545 7.65041 38.2207 7.68299 38.1936 7.71557L37.2664 8.74193ZM38.6504 7.23661L38.285 6.93033L38.5895 6.59473L38.955 6.89775L38.6504 7.23661Z" fill="#727069"/>
<path d="M39.4422 8.2506C39.493 8.20499 39.5403 8.15611 39.5911 8.10398C39.6419 8.05511 39.6892 8.00298 39.7332 7.9541L40.0513 8.26364C40.0107 8.29296 39.9701 8.3288 39.9295 8.3679C39.8889 8.407 39.8483 8.4461 39.8144 8.47868L39.6317 8.65137L39.8111 8.82406C39.8381 8.85013 39.872 8.88271 39.9092 8.91529C39.9464 8.95113 39.9803 8.98046 40.0141 9.00326L39.7535 9.25089C39.7298 9.22157 39.6994 9.18899 39.6689 9.1564C39.6351 9.12382 39.608 9.0945 39.581 9.06843L39.3881 8.88271L38.6301 9.6093C38.5421 9.69402 38.4947 9.7657 38.4947 9.82761C38.4947 9.88952 38.5286 9.95142 38.5963 10.0166C38.6267 10.0427 38.6639 10.0687 38.7079 10.0883C38.7519 10.1078 38.8027 10.1241 38.8602 10.1404L38.5929 10.3945C38.5455 10.3717 38.4947 10.3457 38.4474 10.3131C38.3966 10.2805 38.3526 10.2447 38.3086 10.1991C38.1665 10.0622 38.0887 9.92536 38.0718 9.78525C38.0548 9.64514 38.1225 9.50504 38.268 9.36493L39.0801 8.58621L38.9482 8.45588C38.9245 8.42981 38.8907 8.40374 38.8568 8.37116C38.8196 8.33858 38.7858 8.31251 38.7587 8.2897L39.0192 8.03882C39.0463 8.07466 39.0801 8.10724 39.114 8.14308C39.1478 8.17892 39.1783 8.20825 39.2053 8.23757L39.3272 8.35487L39.4388 8.24735L39.4422 8.2506Z" fill="#727069"/>
<path d="M38.8061 10.9678C38.8196 11.0036 38.8365 11.0427 38.8568 11.0786C38.8805 11.1144 38.8974 11.147 38.9177 11.1666C38.9583 11.2154 39.0023 11.248 39.0497 11.2676C39.1005 11.2871 39.1478 11.2969 39.1986 11.3001C39.2494 11.3001 39.3001 11.2936 39.3475 11.2839C39.3949 11.2708 39.4389 11.2578 39.4761 11.2415L40.4912 9.55371L40.7687 9.89583L40.0919 10.9906C40.0784 11.0167 40.0649 11.0362 40.0479 11.0558C40.031 11.0753 40.0175 11.0949 40.0006 11.1177C40.0479 11.0981 40.0987 11.0786 40.1495 11.0623L41.4049 10.6778L41.6857 11.0199L39.7705 11.5608C39.6723 11.5901 39.5708 11.6129 39.4727 11.6292C39.3712 11.6455 39.273 11.652 39.1783 11.6455C39.0835 11.639 38.9956 11.6162 38.9076 11.5771C38.8196 11.5413 38.7418 11.4794 38.6741 11.3946C38.6369 11.349 38.6064 11.3067 38.5827 11.2708C38.5591 11.235 38.532 11.1926 38.5015 11.1503L38.8061 10.9678Z" fill="#727069"/>
<path d="M42.5791 15.0825L42.0918 14.1116L41.371 14.1898L41.168 13.789L44.0849 13.499L44.3184 13.9617L42.2711 15.9786L42.0681 15.5778L42.5757 15.0825H42.5791ZM42.8532 14.8186L43.804 13.9161L42.4708 14.066L42.8498 14.8186H42.8532Z" fill="#727069"/>
<path d="M43.2694 18.0638C42.9851 18.1518 42.7415 18.1388 42.5419 18.0247C42.3422 17.9107 42.1832 17.6891 42.0715 17.3568C42.0546 17.3079 42.041 17.259 42.0275 17.2069C42.014 17.1548 42.0038 17.1026 41.9971 17.044C41.9869 16.9853 41.9835 16.9234 41.9801 16.855C41.9801 16.7866 41.9801 16.7116 41.9835 16.6302L42.3591 16.5618C42.3524 16.6367 42.3456 16.7051 42.3422 16.767C42.3388 16.8322 42.3388 16.8908 42.3422 16.9495C42.3456 17.0081 42.3557 17.0635 42.3659 17.1189C42.376 17.1743 42.3896 17.233 42.4099 17.2949C42.4742 17.4838 42.5791 17.6044 42.7212 17.6533C42.8633 17.7022 43.0494 17.6924 43.2728 17.624C43.178 17.5849 43.09 17.5229 43.0088 17.4447C42.9276 17.3665 42.8633 17.259 42.8159 17.1222C42.772 16.9918 42.755 16.8713 42.7686 16.754C42.7821 16.64 42.8159 16.5324 42.8735 16.4412C42.9276 16.3467 43.0021 16.2653 43.1002 16.1936C43.1949 16.1251 43.3032 16.0698 43.425 16.0307C43.5604 15.9883 43.6924 15.9688 43.8209 15.9688C43.9495 15.9688 44.0646 15.9916 44.1729 16.0372C44.2812 16.0828 44.3759 16.148 44.4571 16.2327C44.5383 16.3174 44.5992 16.4249 44.6432 16.5552C44.6703 16.6367 44.6872 16.7116 44.694 16.7801C44.7008 16.8485 44.6974 16.9104 44.6906 16.969C44.6805 17.0212 44.6669 17.0733 44.6432 17.1157C44.6229 17.158 44.5992 17.1971 44.5755 17.2264C44.5992 17.2199 44.6297 17.2102 44.6635 17.2004C44.7008 17.1906 44.7447 17.1743 44.7921 17.1515L44.9275 17.5555C44.8666 17.5686 44.7989 17.5881 44.7244 17.6077C44.65 17.6272 44.5823 17.65 44.5214 17.6696L43.2694 18.0573V18.0638ZM43.5773 16.4379C43.4081 16.4901 43.2829 16.5715 43.2017 16.6856C43.1205 16.7996 43.107 16.9397 43.1645 17.1059C43.2186 17.2721 43.3134 17.3796 43.4487 17.4285C43.5841 17.4773 43.7364 17.4741 43.9089 17.4219C43.9868 17.3959 44.0612 17.3633 44.1255 17.3209C44.1932 17.2753 44.2473 17.2264 44.2879 17.1678C44.3251 17.1091 44.3522 17.0407 44.3624 16.9723C44.3759 16.9006 44.3691 16.8257 44.3421 16.7442C44.3116 16.6595 44.2744 16.5911 44.2202 16.5389C44.1661 16.4868 44.1086 16.4477 44.0409 16.4282C43.9698 16.4021 43.8988 16.3923 43.8176 16.3988C43.7397 16.4021 43.6585 16.4184 43.5739 16.4445L43.5773 16.4379Z" fill="#727069"/>
<path d="M43.5976 20.5434C43.5367 20.4457 43.4825 20.3479 43.4386 20.2469C43.3946 20.1459 43.3573 20.0319 43.3337 19.9048C43.3032 19.7321 43.2998 19.579 43.3269 19.4421C43.354 19.3053 43.4081 19.188 43.4859 19.0837C43.5604 18.9827 43.6619 18.9013 43.7905 18.8361C43.9157 18.7709 44.0612 18.7253 44.227 18.6992C44.3725 18.6732 44.5112 18.6732 44.6432 18.6992C44.7752 18.7253 44.8936 18.7677 45.0019 18.8328C45.1068 18.898 45.1948 18.9827 45.2658 19.0902C45.3369 19.1945 45.3843 19.3216 45.4113 19.4617C45.4418 19.6246 45.435 19.7647 45.3978 19.8885C45.3606 20.0091 45.2963 20.1166 45.2049 20.2046C45.1136 20.2925 45.0053 20.3642 44.8699 20.4196C44.7346 20.4717 44.5857 20.5141 44.4233 20.5434L44.1661 19.1554C44.0747 19.1717 43.9969 19.2043 43.9258 19.2531C43.8582 19.302 43.804 19.3574 43.76 19.4226C43.716 19.4877 43.689 19.5594 43.672 19.6344C43.6551 19.7126 43.6551 19.7875 43.672 19.8657C43.6957 19.9895 43.7363 20.1003 43.7972 20.198C43.8582 20.2958 43.9258 20.374 44.0037 20.4392L43.5976 20.5467V20.5434ZM44.6567 20.0612C44.7244 20.0449 44.7853 20.0188 44.8429 19.9863C44.897 19.9504 44.9478 19.9081 44.9884 19.8624C45.0256 19.8136 45.0527 19.7614 45.0696 19.6995C45.0831 19.6409 45.0865 19.5757 45.0763 19.5105C45.0628 19.4356 45.0357 19.3704 44.9951 19.315C44.9545 19.2597 44.9072 19.214 44.853 19.1847C44.7989 19.1489 44.738 19.1228 44.6737 19.1098C44.6094 19.0935 44.5485 19.0902 44.4842 19.0935L44.6635 20.0612H44.6567Z" fill="#727069"/>
<path d="M45.7294 22.3681C45.7396 22.6255 45.6719 22.8178 45.5196 22.9416C45.3707 23.0654 45.1576 23.1338 44.8835 23.1469L43.9292 23.1827C43.8379 23.186 43.7566 23.1925 43.6822 23.2055L43.6653 22.7689C43.7296 22.7689 43.7973 22.7722 43.8717 22.7689C43.9461 22.7689 44.0172 22.7657 44.0883 22.7624L44.7143 22.7363C44.9478 22.7266 45.1136 22.694 45.2185 22.6353C45.3234 22.5767 45.3775 22.4757 45.3809 22.3323C45.3809 22.2411 45.3538 22.1661 45.3098 22.0977C45.2658 22.0325 45.2117 21.9772 45.1406 21.9348C45.0662 21.8924 44.9816 21.8599 44.8835 21.8403C44.7853 21.8208 44.6804 21.8142 44.5654 21.8175L43.8345 21.8468C43.7973 21.8468 43.76 21.8468 43.7262 21.8533C43.6924 21.8533 43.6585 21.8599 43.6281 21.8631L43.6111 21.4298C43.6754 21.4298 43.7431 21.4298 43.8176 21.4298C43.892 21.4298 43.9631 21.4265 44.0341 21.4232L45.2151 21.3776C45.2861 21.3776 45.3538 21.3711 45.4249 21.3679C45.496 21.3646 45.567 21.3581 45.6347 21.3516L45.655 21.7849C45.6347 21.7849 45.6144 21.7849 45.6042 21.7817C45.5907 21.7817 45.5772 21.7817 45.5636 21.7817L45.4249 21.7882C45.6144 21.9055 45.7193 22.0977 45.7294 22.3681Z" fill="#727069"/>
<path d="M45.1542 25.5417C45.1982 25.47 45.232 25.3951 45.2523 25.3267C45.2726 25.255 45.2895 25.1898 45.2929 25.1247C45.3031 25.0237 45.2929 24.9292 45.2625 24.8477C45.232 24.763 45.188 24.6946 45.1271 24.6327C45.0662 24.5708 44.9917 24.5251 44.9072 24.486C44.8226 24.4502 44.7312 24.4274 44.6331 24.4176C44.5315 24.4111 44.4368 24.4176 44.3488 24.4404C44.2608 24.4632 44.1796 24.5023 44.1086 24.5512C44.0375 24.6033 43.98 24.6653 43.936 24.7467C43.892 24.8249 43.8649 24.9161 43.8582 25.0204C43.8548 25.0758 43.8582 25.1475 43.8717 25.2322C43.8886 25.3169 43.9157 25.3984 43.9563 25.4766L43.5773 25.4929C43.5401 25.3918 43.5198 25.2941 43.5164 25.1996C43.5164 25.1051 43.5164 25.0237 43.5164 24.9585C43.5299 24.8086 43.5671 24.6718 43.6314 24.548C43.6923 24.4241 43.7736 24.3199 43.8751 24.2352C43.9766 24.1472 44.095 24.082 44.227 24.0397C44.3623 23.994 44.5079 23.981 44.6635 23.994C44.8226 24.0071 44.9681 24.0429 45.0933 24.1048C45.2185 24.1667 45.3267 24.2482 45.4113 24.3492C45.4926 24.4469 45.5535 24.5642 45.5941 24.6978C45.6347 24.8314 45.6448 24.9715 45.6347 25.1247C45.6279 25.2126 45.611 25.3039 45.5839 25.3918C45.5602 25.4798 45.5298 25.5548 45.4993 25.6102L45.1474 25.5352L45.1542 25.5417Z" fill="#727069"/>
<path d="M43.2322 25.9952C43.2119 26.0278 43.1949 26.0636 43.178 26.106C43.1611 26.1451 43.1509 26.1809 43.1476 26.207C43.134 26.2656 43.1374 26.321 43.1543 26.3699C43.1712 26.4188 43.1949 26.4611 43.2254 26.5002C43.2558 26.5361 43.2964 26.5687 43.3337 26.598C43.3743 26.6241 43.4115 26.6469 43.4487 26.6664L45.4418 26.3113L45.3538 26.7381L44.0477 26.9564C44.0206 26.9597 43.9935 26.9662 43.9664 26.9662C43.9394 26.9662 43.9157 26.9694 43.8886 26.9727C43.936 26.9955 43.9834 27.0183 44.0274 27.0476L45.1474 27.7156L45.0594 28.1424L43.3878 27.0932C43.2998 27.0411 43.2186 26.9825 43.1374 26.9206C43.0596 26.8587 42.9885 26.7902 42.931 26.7153C42.8769 26.6403 42.8362 26.5621 42.8092 26.4742C42.7821 26.3862 42.7821 26.2885 42.8024 26.1809C42.8159 26.1223 42.8261 26.0734 42.8396 26.0343C42.8532 25.9952 42.8701 25.9496 42.8836 25.8975L43.2254 26.0017L43.2322 25.9952Z" fill="#727069"/>
<path d="M22.4417 44.156C22.4485 44.0746 22.391 44.0062 22.3098 43.9931L20.7295 43.8107C20.6449 43.8009 20.5874 43.7292 20.5908 43.6477L20.7193 42.6246L22.3605 42.8169L22.3876 42.6018C22.3944 42.5236 22.3368 42.4487 22.2556 42.4389L20.919 42.2858C20.8344 42.276 20.7735 42.2043 20.7836 42.1229L20.8818 41.3441L22.5331 41.5364L22.5602 41.3279C22.5703 41.2431 22.5094 41.1682 22.4248 41.1584L20.3911 40.9238L20.0629 43.5239C20.0189 43.8302 20.2524 44.1169 20.5806 44.156L22.4147 44.3678L22.4417 44.1593V44.156Z" fill="#00387F"/>
<path d="M23.4467 41.1941L23.061 41.1484L22.9933 41.6926V41.7186L22.4586 41.6567L22.4316 41.875C22.4248 41.9532 22.4857 42.0249 22.5669 42.0347L22.9459 42.077L22.9392 42.1194L22.929 42.1846L22.9189 42.2693L22.9087 42.341L22.9019 42.3833V42.4289L22.6177 44.6446C22.6109 44.726 22.6684 44.7977 22.753 44.8107L23.132 44.8563L23.5719 41.357C23.5821 41.2788 23.5212 41.2038 23.44 41.1941H23.4467Z" fill="#00387F"/>
</g>
</g>
<defs>
<linearGradient id="paint0_linear_359_271" x1="20.7349" y1="25.2946" x2="33.0939" y2="39.8622" gradientUnits="userSpaceOnUse">
<stop stop-color="#8FC31F"/>
<stop offset="0.26" stop-color="#8CBF1D"/>
<stop offset="0.49" stop-color="#83B419"/>
<stop offset="0.7" stop-color="#75A213"/>
<stop offset="0.91" stop-color="#62890A"/>
<stop offset="0.93" stop-color="#608709"/>
</linearGradient>
<linearGradient id="paint1_linear_359_271" x1="32.3496" y1="18.5674" x2="24.3812" y2="26.3022" gradientUnits="userSpaceOnUse">
<stop stop-color="#8FC31F"/>
<stop offset="0.47" stop-color="#8DC11E"/>
<stop offset="0.64" stop-color="#88BA1B"/>
<stop offset="0.76" stop-color="#7EAE17"/>
<stop offset="0.85" stop-color="#719D11"/>
<stop offset="0.94" stop-color="#608709"/>
</linearGradient>
<linearGradient id="paint2_linear_359_271" x1="15.894" y1="23.7599" x2="20.9715" y2="19.1972" gradientUnits="userSpaceOnUse">
<stop stop-color="#004EA2"/>
<stop offset="0.29" stop-color="#004B9E"/>
<stop offset="0.54" stop-color="#004593"/>
<stop offset="0.77" stop-color="#003A81"/>
<stop offset="1" stop-color="#002B69"/>
</linearGradient>
<linearGradient id="paint3_linear_359_271" x1="23.9171" y1="20.4364" x2="16.9168" y2="12.1065" gradientUnits="userSpaceOnUse">
<stop stop-color="#004EA2"/>
<stop offset="0.29" stop-color="#004B9E"/>
<stop offset="0.54" stop-color="#004593"/>
<stop offset="0.77" stop-color="#003A81"/>
<stop offset="1" stop-color="#002B69"/>
</linearGradient>
<clipPath id="clip0_359_271">
<rect width="48" height="45" fill="white"/>
</clipPath>
<clipPath id="clip1_359_271">
<rect width="48" height="45" fill="white"/>
</clipPath>
</defs>
</svg>
