<svg width="36" height="36" viewBox="0 0 36 36" fill="none" xmlns="http://www.w3.org/2000/svg">
<path d="M27 16C27 23 18 29 18 29C18 29 9 23 9 16C9 13.6131 9.94821 11.3239 11.636 9.63604C13.3239 7.94821 15.6131 7 18 7C20.3869 7 22.6761 7.94821 24.364 9.63604C26.0518 11.3239 27 13.6131 27 16Z" stroke="#333333" stroke-width="2" stroke-linecap="round" stroke-linejoin="round"/>
<path d="M18 19C19.6569 19 21 17.6569 21 16C21 14.3431 19.6569 13 18 13C16.3431 13 15 14.3431 15 16C15 17.6569 16.3431 19 18 19Z" stroke="#333333" stroke-width="2" stroke-linecap="round" stroke-linejoin="round"/>
</svg>
